<mxfile host="65bd71144e">
    <diagram id="L1L-aMBzzM1MEzIjlqiO" name="Page-1">
        <mxGraphModel dx="2293" dy="903" grid="0" gridSize="10" guides="1" tooltips="1" connect="1" arrows="1" fold="1" page="0" pageScale="1" pageWidth="850" pageHeight="1100" background="none" math="0" shadow="0">
            <root>
                <mxCell id="0"/>
                <mxCell id="1" parent="0"/>
                <mxCell id="44" value="" style="edgeStyle=none;html=1;endArrow=block;endFill=1;rounded=0;" parent="1" source="2" target="43" edge="1">
                    <mxGeometry relative="1" as="geometry"/>
                </mxCell>
                <mxCell id="2" value="Customer" style="rounded=0;whiteSpace=wrap;html=1;" parent="1" vertex="1">
                    <mxGeometry x="-197" y="598.75" width="120" height="60" as="geometry"/>
                </mxCell>
                <mxCell id="18" value="" style="edgeStyle=none;html=1;startArrow=none;startFill=0;endArrow=none;endFill=0;strokeWidth=1;rounded=0;" parent="1" source="5" target="182" edge="1">
                    <mxGeometry relative="1" as="geometry">
                        <mxPoint x="39.80000000000001" y="1140" as="targetPoint"/>
                    </mxGeometry>
                </mxCell>
                <mxCell id="30" value="" style="edgeStyle=none;html=1;strokeWidth=1;startArrow=none;startFill=0;endArrow=block;endFill=1;rounded=0;" parent="1" source="5" target="29" edge="1">
                    <mxGeometry relative="1" as="geometry">
                        <mxPoint x="154.64745762711829" y="1083.8474576271183" as="targetPoint"/>
                    </mxGeometry>
                </mxCell>
                <mxCell id="79" style="edgeStyle=none;html=1;endArrow=none;endFill=0;rounded=0;" parent="1" source="5" target="-Xfdy7UChU0Q8BkvYpxF-176" edge="1">
                    <mxGeometry relative="1" as="geometry">
                        <mxPoint x="-102.63233838120283" y="1138.6510495828811" as="targetPoint"/>
                    </mxGeometry>
                </mxCell>
                <mxCell id="86" style="edgeStyle=none;html=1;endArrow=none;endFill=0;rounded=0;" parent="1" source="5" target="84" edge="1">
                    <mxGeometry relative="1" as="geometry"/>
                </mxCell>
                <mxCell id="-Xfdy7UChU0Q8BkvYpxF-167" style="rounded=0;orthogonalLoop=1;jettySize=auto;html=1;endArrow=none;endFill=0;" parent="1" source="5" target="dYaynzTb6qn7LC-2oVFC-233" edge="1">
                    <mxGeometry relative="1" as="geometry">
                        <mxPoint x="-33.19999999999999" y="1533" as="targetPoint"/>
                    </mxGeometry>
                </mxCell>
                <mxCell id="161" style="edgeStyle=none;html=1;strokeWidth=1;startSize=1;endSize=1;" parent="1" source="5" target="160" edge="1">
                    <mxGeometry relative="1" as="geometry"/>
                </mxCell>
                <mxCell id="183" style="edgeStyle=none;html=1;strokeWidth=1;endArrow=none;endFill=0;startSize=1;endSize=1;" parent="1" source="5" target="dYaynzTb6qn7LC-2oVFC-215" edge="1">
                    <mxGeometry relative="1" as="geometry"/>
                </mxCell>
                <mxCell id="185" style="edgeStyle=none;html=1;strokeWidth=1;endArrow=none;endFill=0;startSize=1;endSize=1;" parent="1" source="5" target="184" edge="1">
                    <mxGeometry relative="1" as="geometry"/>
                </mxCell>
                <mxCell id="5" value="Games" style="whiteSpace=wrap;html=1;rounded=0;strokeWidth=1;" parent="1" vertex="1">
                    <mxGeometry x="-195.9" y="1081" width="120" height="60" as="geometry"/>
                </mxCell>
                <mxCell id="10" value="" style="edgeStyle=none;html=1;startArrow=none;startFill=0;endArrow=none;endFill=0;shape=link;rounded=0;" parent="1" source="7" target="9" edge="1">
                    <mxGeometry relative="1" as="geometry">
                        <mxPoint x="-85.31571951655428" y="469.99667703633213" as="sourcePoint"/>
                    </mxGeometry>
                </mxCell>
                <mxCell id="12" value="" style="edgeStyle=none;html=1;startArrow=none;startFill=0;endArrow=none;endFill=0;rounded=0;" parent="1" source="7" target="11" edge="1">
                    <mxGeometry relative="1" as="geometry"/>
                </mxCell>
                <mxCell id="7" value="d" style="ellipse;whiteSpace=wrap;html=1;rounded=0;" parent="1" vertex="1">
                    <mxGeometry x="-313" y="499" width="30" height="30" as="geometry"/>
                </mxCell>
                <mxCell id="92" value="" style="edgeStyle=none;html=1;endArrow=none;endFill=0;rounded=0;" parent="1" source="9" target="91" edge="1">
                    <mxGeometry relative="1" as="geometry"/>
                </mxCell>
                <mxCell id="94" value="" style="edgeStyle=none;html=1;endArrow=none;endFill=0;rounded=0;" parent="1" source="9" target="93" edge="1">
                    <mxGeometry relative="1" as="geometry"/>
                </mxCell>
                <mxCell id="95" value="" style="edgeStyle=none;html=1;endArrow=none;endFill=0;rounded=0;" parent="1" source="9" target="93" edge="1">
                    <mxGeometry relative="1" as="geometry"/>
                </mxCell>
                <mxCell id="98" value="" style="edgeStyle=none;html=1;endArrow=none;endFill=0;rounded=0;" parent="1" source="9" target="97" edge="1">
                    <mxGeometry relative="1" as="geometry"/>
                </mxCell>
                <mxCell id="101" value="" style="edgeStyle=none;html=1;endArrow=none;endFill=0;rounded=0;" parent="1" source="9" target="100" edge="1">
                    <mxGeometry relative="1" as="geometry"/>
                </mxCell>
                <mxCell id="103" value="" style="edgeStyle=none;html=1;endArrow=none;endFill=0;rounded=0;" parent="1" source="9" target="102" edge="1">
                    <mxGeometry relative="1" as="geometry"/>
                </mxCell>
                <mxCell id="dYaynzTb6qn7LC-2oVFC-225" style="edgeStyle=none;rounded=1;orthogonalLoop=1;jettySize=auto;html=1;endArrow=none;endFill=0;" parent="1" source="9" target="dYaynzTb6qn7LC-2oVFC-224" edge="1">
                    <mxGeometry relative="1" as="geometry"/>
                </mxCell>
                <mxCell id="9" value="User" style="whiteSpace=wrap;html=1;rounded=0;" parent="1" vertex="1">
                    <mxGeometry x="-508" y="484" width="120" height="60" as="geometry"/>
                </mxCell>
                <mxCell id="53" value="" style="edgeStyle=none;html=1;strokeWidth=1;startArrow=none;startFill=0;endArrow=none;endFill=0;rounded=0;" parent="1" source="11" target="52" edge="1">
                    <mxGeometry relative="1" as="geometry"/>
                </mxCell>
                <mxCell id="177" style="edgeStyle=none;html=1;strokeWidth=1;endArrow=none;endFill=0;startSize=1;endSize=1;" parent="1" source="11" target="175" edge="1">
                    <mxGeometry relative="1" as="geometry"/>
                </mxCell>
                <mxCell id="11" value="Store Manager" style="whiteSpace=wrap;html=1;rounded=0;" parent="1" vertex="1">
                    <mxGeometry x="-197.00000000000003" y="484" width="120" height="60" as="geometry"/>
                </mxCell>
                <mxCell id="13" value="" style="edgeStyle=none;html=1;startArrow=none;startFill=0;endArrow=none;endFill=0;rounded=0;" parent="1" source="7" target="14" edge="1">
                    <mxGeometry relative="1" as="geometry">
                        <mxPoint x="30" y="180" as="sourcePoint"/>
                    </mxGeometry>
                </mxCell>
                <mxCell id="178" style="edgeStyle=none;html=1;strokeWidth=1;endArrow=none;endFill=0;startSize=1;endSize=1;" parent="1" source="14" target="176" edge="1">
                    <mxGeometry relative="1" as="geometry"/>
                </mxCell>
                <mxCell id="14" value="Admin" style="whiteSpace=wrap;html=1;rounded=0;" parent="1" vertex="1">
                    <mxGeometry x="-191.00000000000003" y="356" width="120" height="60" as="geometry"/>
                </mxCell>
                <mxCell id="20" value="" style="edgeStyle=none;html=1;startArrow=none;startFill=0;endArrow=none;endFill=0;rounded=0;" parent="1" source="17" target="19" edge="1">
                    <mxGeometry relative="1" as="geometry"/>
                </mxCell>
                <mxCell id="194" style="edgeStyle=none;html=1;strokeWidth=1;endArrow=none;endFill=0;startSize=1;endSize=5;" parent="1" source="17" target="5" edge="1">
                    <mxGeometry relative="1" as="geometry"/>
                </mxCell>
                <mxCell id="17" value="inventories" style="rhombus;whiteSpace=wrap;html=1;rounded=0;" parent="1" vertex="1">
                    <mxGeometry x="0.9999999999999716" y="767.25" width="80" height="80" as="geometry"/>
                </mxCell>
                <mxCell id="22" value="" style="edgeStyle=none;html=1;strokeWidth=1;startArrow=none;startFill=0;endArrow=none;endFill=0;rounded=0;" parent="1" source="19" target="186" edge="1">
                    <mxGeometry relative="1" as="geometry">
                        <mxPoint x="551.0541069100395" y="0.9035202086049594" as="targetPoint"/>
                    </mxGeometry>
                </mxCell>
                <mxCell id="157" style="edgeStyle=none;html=1;endArrow=none;endFill=0;rounded=0;" parent="1" source="19" target="154" edge="1">
                    <mxGeometry relative="1" as="geometry"/>
                </mxCell>
                <mxCell id="159" style="edgeStyle=none;html=1;endArrow=none;endFill=0;rounded=0;" parent="1" source="19" target="156" edge="1">
                    <mxGeometry relative="1" as="geometry"/>
                </mxCell>
                <mxCell id="192" style="edgeStyle=none;html=1;strokeWidth=1;endArrow=none;endFill=0;startSize=1;endSize=5;" parent="1" source="19" target="193" edge="1">
                    <mxGeometry relative="1" as="geometry">
                        <mxPoint x="405.256145183997" y="57.70209391454705" as="targetPoint"/>
                    </mxGeometry>
                </mxCell>
                <mxCell id="19" value="Store" style="whiteSpace=wrap;html=1;rounded=0;" parent="1" vertex="1">
                    <mxGeometry x="129" y="484" width="120" height="60" as="geometry"/>
                </mxCell>
                <mxCell id="24" value="" style="edgeStyle=none;html=1;strokeWidth=1;startArrow=none;startFill=0;endArrow=none;endFill=0;rounded=0;" parent="1" source="21" target="-OKithYqSDyM2QqRVdGg-163" edge="1">
                    <mxGeometry relative="1" as="geometry">
                        <mxPoint x="433.29999999999995" y="83" as="targetPoint"/>
                    </mxGeometry>
                </mxCell>
                <mxCell id="195" style="edgeStyle=none;html=1;endArrow=none;endFill=0;strokeWidth=4;startArrow=block;startFill=1;" edge="1" parent="1" source="21" target="19">
                    <mxGeometry relative="1" as="geometry">
                        <mxPoint x="825.0000697544642" y="106.42857142857156" as="targetPoint"/>
                    </mxGeometry>
                </mxCell>
                <mxCell id="21" value="belongs" style="rhombus;whiteSpace=wrap;html=1;rounded=0;" parent="1" vertex="1">
                    <mxGeometry x="154" y="605" width="70" height="60" as="geometry"/>
                </mxCell>
                <mxCell id="32" value="" style="edgeStyle=none;html=1;strokeWidth=1;startArrow=none;startFill=0;endArrow=none;endFill=0;rounded=0;" parent="1" source="29" target="31" edge="1">
                    <mxGeometry relative="1" as="geometry"/>
                </mxCell>
                <mxCell id="29" value="belongs" style="rhombus;whiteSpace=wrap;html=1;rounded=0;strokeWidth=1;" parent="1" vertex="1">
                    <mxGeometry x="24" y="895" width="80" height="80" as="geometry"/>
                </mxCell>
                <mxCell id="1-gIfbeMgeTZ3ZNBH4WI-160" style="rounded=0;orthogonalLoop=1;jettySize=auto;html=1;endArrow=none;endFill=0;" parent="1" source="31" target="-fI06E_qC7kYEdV2wy-7-163" edge="1">
                    <mxGeometry relative="1" as="geometry"/>
                </mxCell>
                <mxCell id="31" value="Developer" style="whiteSpace=wrap;html=1;rounded=0;" parent="1" vertex="1">
                    <mxGeometry x="129" y="802.25" width="120" height="60" as="geometry"/>
                </mxCell>
                <mxCell id="41" value="" style="edgeStyle=none;html=1;strokeWidth=1;startArrow=none;startFill=0;endArrow=none;endFill=0;rounded=0;" parent="1" source="38" target="40" edge="1">
                    <mxGeometry relative="1" as="geometry"/>
                </mxCell>
                <mxCell id="1-gIfbeMgeTZ3ZNBH4WI-161" style="rounded=0;orthogonalLoop=1;jettySize=auto;html=1;endArrow=none;endFill=0;" parent="1" source="38" target="-fI06E_qC7kYEdV2wy-7-163" edge="1">
                    <mxGeometry relative="1" as="geometry">
                        <mxPoint x="1381.2800000000004" y="1117" as="sourcePoint"/>
                        <mxPoint x="1380.9959275965537" y="834.3531639352798" as="targetPoint"/>
                    </mxGeometry>
                </mxCell>
                <mxCell id="38" value="Publisher" style="whiteSpace=wrap;html=1;rounded=0;" parent="1" vertex="1">
                    <mxGeometry x="125" y="957.38" width="120" height="60" as="geometry"/>
                </mxCell>
                <mxCell id="42" style="html=1;strokeWidth=1;startArrow=none;startFill=0;endArrow=none;endFill=0;rounded=0;" parent="1" source="40" target="5" edge="1">
                    <mxGeometry relative="1" as="geometry"/>
                </mxCell>
                <mxCell id="40" value="publishes" style="rhombus;whiteSpace=wrap;html=1;rounded=0;" parent="1" vertex="1">
                    <mxGeometry x="145" y="1071" width="80" height="80" as="geometry"/>
                </mxCell>
                <mxCell id="47" value="" style="edgeStyle=none;html=1;endArrow=none;endFill=0;startArrow=block;startFill=1;strokeWidth=4;rounded=0;" parent="1" source="43" target="46" edge="1">
                    <mxGeometry relative="1" as="geometry"/>
                </mxCell>
                <mxCell id="43" value="has" style="rhombus;whiteSpace=wrap;html=1;rounded=0;" parent="1" vertex="1">
                    <mxGeometry x="-177" y="709" width="80" height="80" as="geometry"/>
                </mxCell>
                <mxCell id="50" value="" style="edgeStyle=none;html=1;strokeWidth=1;startArrow=none;startFill=0;endArrow=none;endFill=0;rounded=0;" parent="1" source="46" target="49" edge="1">
                    <mxGeometry relative="1" as="geometry"/>
                </mxCell>
                <mxCell id="TF3Yx5PsitKT7lrlH3tv-160" value="" style="rounded=0;orthogonalLoop=1;jettySize=auto;html=1;endArrow=none;endFill=0;" parent="1" source="46" target="TF3Yx5PsitKT7lrlH3tv-159" edge="1">
                    <mxGeometry relative="1" as="geometry"/>
                </mxCell>
                <mxCell id="-Xfdy7UChU0Q8BkvYpxF-161" style="rounded=0;orthogonalLoop=1;jettySize=auto;html=1;endArrow=none;endFill=0;" parent="1" source="46" target="-Xfdy7UChU0Q8BkvYpxF-159" edge="1">
                    <mxGeometry relative="1" as="geometry"/>
                </mxCell>
                <mxCell id="46" value="Wishlist" style="whiteSpace=wrap;html=1;rounded=0;strokeWidth=1;" parent="1" vertex="1">
                    <mxGeometry x="-197" y="869" width="120" height="60" as="geometry"/>
                </mxCell>
                <mxCell id="dYaynzTb6qn7LC-2oVFC-236" style="rounded=1;orthogonalLoop=1;jettySize=auto;html=1;endArrow=none;endFill=0;" parent="1" source="49" target="5" edge="1">
                    <mxGeometry relative="1" as="geometry"/>
                </mxCell>
                <mxCell id="49" value="contains" style="rhombus;whiteSpace=wrap;html=1;rounded=0;" parent="1" vertex="1">
                    <mxGeometry x="-177" y="973" width="80" height="80" as="geometry"/>
                </mxCell>
                <mxCell id="56" style="edgeStyle=orthogonalEdgeStyle;html=1;strokeWidth=1;startArrow=block;startFill=1;endArrow=none;endFill=0;rounded=0;" parent="1" source="52" target="19" edge="1">
                    <mxGeometry relative="1" as="geometry">
                        <Array as="points">
                            <mxPoint x="58" y="514"/>
                            <mxPoint x="58" y="514"/>
                        </Array>
                        <mxPoint x="910" y="32" as="targetPoint"/>
                    </mxGeometry>
                </mxCell>
                <mxCell id="52" value="manages" style="rhombus;whiteSpace=wrap;html=1;rounded=0;" parent="1" vertex="1">
                    <mxGeometry x="-21.00000000000003" y="474" width="80" height="80" as="geometry"/>
                </mxCell>
                <mxCell id="81" value="Genres" style="ellipse;whiteSpace=wrap;html=1;strokeWidth=4;rounded=0;" parent="1" vertex="1">
                    <mxGeometry x="-24.999999999999986" y="1031" width="66.6" height="40" as="geometry"/>
                </mxCell>
                <mxCell id="84" value="Platforms" style="ellipse;whiteSpace=wrap;html=1;strokeWidth=4;rounded=0;" parent="1" vertex="1">
                    <mxGeometry x="-174.6000000000001" y="1211" width="84.6" height="40" as="geometry"/>
                </mxCell>
                <mxCell id="91" value="&lt;u&gt;user_id&lt;/u&gt;" style="ellipse;whiteSpace=wrap;html=1;rounded=0;" parent="1" vertex="1">
                    <mxGeometry x="-604.5" y="473.5" width="73" height="37" as="geometry"/>
                </mxCell>
                <mxCell id="169" style="edgeStyle=none;html=1;strokeWidth=1;endArrow=none;endFill=0;startSize=1;endSize=1;" parent="1" source="93" target="172" edge="1">
                    <mxGeometry relative="1" as="geometry">
                        <mxPoint x="-308" y="620" as="targetPoint"/>
                    </mxGeometry>
                </mxCell>
                <mxCell id="170" style="edgeStyle=none;html=1;strokeWidth=1;endArrow=none;endFill=0;startSize=1;endSize=1;" parent="1" source="93" target="171" edge="1">
                    <mxGeometry relative="1" as="geometry">
                        <mxPoint x="-400.00000508626295" y="615.499974568685" as="targetPoint"/>
                    </mxGeometry>
                </mxCell>
                <mxCell id="93" value="Name" style="ellipse;whiteSpace=wrap;html=1;rounded=0;" parent="1" vertex="1">
                    <mxGeometry x="-417" y="560" width="75" height="37" as="geometry"/>
                </mxCell>
                <mxCell id="97" value="dob" style="ellipse;whiteSpace=wrap;html=1;rounded=0;" parent="1" vertex="1">
                    <mxGeometry x="-599.5" y="523.75" width="68" height="40.5" as="geometry"/>
                </mxCell>
                <mxCell id="100" value="email" style="ellipse;whiteSpace=wrap;html=1;rounded=0;strokeWidth=1;" parent="1" vertex="1">
                    <mxGeometry x="-547" y="574" width="69" height="38" as="geometry"/>
                </mxCell>
                <mxCell id="102" value="phone" style="ellipse;whiteSpace=wrap;html=1;rounded=0;" parent="1" vertex="1">
                    <mxGeometry x="-533" y="377" width="78" height="39" as="geometry"/>
                </mxCell>
                <mxCell id="238" style="edgeStyle=none;rounded=0;html=1;strokeWidth=1;startArrow=none;startFill=0;endArrow=none;endFill=0;" edge="1" parent="1" source="111" target="2">
                    <mxGeometry relative="1" as="geometry"/>
                </mxCell>
                <mxCell id="111" value="last_login" style="ellipse;whiteSpace=wrap;html=1;strokeWidth=1;rounded=0;" parent="1" vertex="1">
                    <mxGeometry x="-93" y="549.5" width="76" height="40" as="geometry"/>
                </mxCell>
                <mxCell id="1-gIfbeMgeTZ3ZNBH4WI-177" style="rounded=0;orthogonalLoop=1;jettySize=auto;html=1;endArrow=block;endFill=1;edgeStyle=orthogonalEdgeStyle;" parent="1" source="dYaynzTb6qn7LC-2oVFC-164" target="dYaynzTb6qn7LC-2oVFC-171" edge="1">
                    <mxGeometry relative="1" as="geometry">
                        <mxPoint x="324.36363636363603" y="758.636363636364" as="targetPoint"/>
                        <Array as="points">
                            <mxPoint x="-525" y="1296"/>
                        </Array>
                    </mxGeometry>
                </mxCell>
                <mxCell id="iSEUA83aBgZTAnxHLK8J-172" style="rounded=0;orthogonalLoop=1;jettySize=auto;html=1;shape=link;" parent="1" source="139" target="iSEUA83aBgZTAnxHLK8J-171" edge="1">
                    <mxGeometry relative="1" as="geometry"/>
                </mxCell>
                <mxCell id="139" value="Photo" style="whiteSpace=wrap;html=1;strokeWidth=1;rounded=0;" parent="1" vertex="1">
                    <mxGeometry x="-289.00000000000006" y="779" width="80" height="49.75" as="geometry"/>
                </mxCell>
                <mxCell id="153" style="edgeStyle=none;html=1;endArrow=none;endFill=0;rounded=0;" parent="1" source="iSEUA83aBgZTAnxHLK8J-162" target="139" edge="1">
                    <mxGeometry relative="1" as="geometry">
                        <mxPoint x="-861.4600610351563" y="537.6500244140625" as="targetPoint"/>
                        <mxPoint x="-511.43799213513375" y="777.5761935971693" as="sourcePoint"/>
                    </mxGeometry>
                </mxCell>
                <mxCell id="154" value="store_id" style="ellipse;whiteSpace=wrap;html=1;rounded=0;fontStyle=4" parent="1" vertex="1">
                    <mxGeometry x="59" y="428" width="63.5" height="35" as="geometry"/>
                </mxCell>
                <mxCell id="0EuTNRP_Wa4SwzTkIQt1-163" value="" style="rounded=0;orthogonalLoop=1;jettySize=auto;html=1;endArrow=none;endFill=0;" parent="1" edge="1">
                    <mxGeometry relative="1" as="geometry">
                        <mxPoint x="1138.9428339607598" y="56.05002028433523" as="sourcePoint"/>
                    </mxGeometry>
                </mxCell>
                <mxCell id="0EuTNRP_Wa4SwzTkIQt1-174" style="rounded=0;orthogonalLoop=1;jettySize=auto;html=1;endArrow=none;endFill=0;" parent="1" edge="1">
                    <mxGeometry relative="1" as="geometry">
                        <mxPoint x="1154.1688320557892" y="65.73545266300744" as="sourcePoint"/>
                    </mxGeometry>
                </mxCell>
                <mxCell id="0EuTNRP_Wa4SwzTkIQt1-175" style="rounded=0;orthogonalLoop=1;jettySize=auto;html=1;endArrow=none;endFill=0;" parent="1" edge="1">
                    <mxGeometry relative="1" as="geometry">
                        <mxPoint x="1156.3403309146047" y="77.30318185241322" as="sourcePoint"/>
                    </mxGeometry>
                </mxCell>
                <mxCell id="162" style="edgeStyle=none;html=1;strokeWidth=1;startSize=1;endSize=1;endArrow=none;endFill=0;" parent="1" source="156" target="163" edge="1">
                    <mxGeometry relative="1" as="geometry">
                        <mxPoint x="601.5000610351562" y="208.00003051757812" as="targetPoint"/>
                    </mxGeometry>
                </mxCell>
                <mxCell id="167" style="edgeStyle=none;html=1;strokeWidth=1;endArrow=none;endFill=0;startSize=1;endSize=1;" parent="1" source="156" target="165" edge="1">
                    <mxGeometry relative="1" as="geometry"/>
                </mxCell>
                <mxCell id="168" style="edgeStyle=none;html=1;strokeWidth=1;endArrow=none;endFill=0;startSize=1;endSize=1;" parent="1" source="156" target="166" edge="1">
                    <mxGeometry relative="1" as="geometry"/>
                </mxCell>
                <mxCell id="156" value="Store Hours" style="ellipse;whiteSpace=wrap;html=1;strokeWidth=4;rounded=0;fontStyle=0" parent="1" vertex="1">
                    <mxGeometry x="270" y="523.25" width="82.6" height="41" as="geometry"/>
                </mxCell>
                <mxCell id="1-gIfbeMgeTZ3ZNBH4WI-159" style="rounded=0;orthogonalLoop=1;jettySize=auto;html=1;endArrow=none;endFill=0;" parent="1" source="-OKithYqSDyM2QqRVdGg-163" target="-fI06E_qC7kYEdV2wy-7-163" edge="1">
                    <mxGeometry relative="1" as="geometry"/>
                </mxCell>
                <mxCell id="-OKithYqSDyM2QqRVdGg-163" value="Parent Company" style="whiteSpace=wrap;html=1;rounded=0;" parent="1" vertex="1">
                    <mxGeometry x="128.9999999999999" y="706" width="120" height="60" as="geometry"/>
                </mxCell>
                <mxCell id="-OKithYqSDyM2QqRVdGg-182" style="rounded=0;orthogonalLoop=1;jettySize=auto;html=1;endArrow=none;endFill=0;" parent="1" source="-OKithYqSDyM2QqRVdGg-180" target="19" edge="1">
                    <mxGeometry relative="1" as="geometry"/>
                </mxCell>
                <mxCell id="-OKithYqSDyM2QqRVdGg-180" value="modality" style="ellipse;whiteSpace=wrap;html=1;rounded=0;strokeWidth=1;" parent="1" vertex="1">
                    <mxGeometry x="205" y="385" width="65" height="39" as="geometry"/>
                </mxCell>
                <mxCell id="I_FGOVh-PH4kXggIpaVM-165" style="rounded=0;orthogonalLoop=1;jettySize=auto;html=1;endArrow=none;endFill=0;" parent="1" source="I_FGOVh-PH4kXggIpaVM-163" target="5" edge="1">
                    <mxGeometry relative="1" as="geometry">
                        <mxPoint x="27.400000000000034" y="1106" as="targetPoint"/>
                        <mxPoint x="75.81228383999036" y="1145.5356688533443" as="sourcePoint"/>
                    </mxGeometry>
                </mxCell>
                <mxCell id="I_FGOVh-PH4kXggIpaVM-163" value="price" style="ellipse;whiteSpace=wrap;html=1;rounded=0;" parent="1" vertex="1">
                    <mxGeometry x="-7.999999999999982" y="1128" width="84.6" height="40" as="geometry"/>
                </mxCell>
                <mxCell id="O7Hb4U0rMUPLCB2uZ9Ao-166" style="edgeStyle=none;html=1;endArrow=none;endFill=0;rounded=0;" parent="1" source="17" target="O7Hb4U0rMUPLCB2uZ9Ao-164" edge="1">
                    <mxGeometry relative="1" as="geometry">
                        <mxPoint x="940.35" y="1021.25" as="sourcePoint"/>
                        <mxPoint x="967.35" y="1006.25" as="targetPoint"/>
                    </mxGeometry>
                </mxCell>
                <mxCell id="O7Hb4U0rMUPLCB2uZ9Ao-164" value="discount" style="ellipse;whiteSpace=wrap;html=1;rounded=0;" parent="1" vertex="1">
                    <mxGeometry x="-49.000000000000114" y="719" width="84.6" height="40" as="geometry"/>
                </mxCell>
                <mxCell id="-fI06E_qC7kYEdV2wy-7-176" style="rounded=0;orthogonalLoop=1;jettySize=auto;html=1;endArrow=none;endFill=0;" parent="1" source="-fI06E_qC7kYEdV2wy-7-163" target="-fI06E_qC7kYEdV2wy-7-164" edge="1">
                    <mxGeometry relative="1" as="geometry"/>
                </mxCell>
                <mxCell id="-fI06E_qC7kYEdV2wy-7-163" value="O" style="ellipse;whiteSpace=wrap;html=1;strokeWidth=1;rounded=0;" parent="1" vertex="1">
                    <mxGeometry x="327" y="817.25" width="31" height="30" as="geometry"/>
                </mxCell>
                <mxCell id="212" style="edgeStyle=none;html=1;endArrow=none;endFill=0;" edge="1" parent="1" source="-fI06E_qC7kYEdV2wy-7-164" target="205">
                    <mxGeometry relative="1" as="geometry"/>
                </mxCell>
                <mxCell id="-fI06E_qC7kYEdV2wy-7-164" value="Business" style="whiteSpace=wrap;html=1;rounded=0;" parent="1" vertex="1">
                    <mxGeometry x="394" y="802.25" width="120" height="60" as="geometry"/>
                </mxCell>
                <mxCell id="-fI06E_qC7kYEdV2wy-7-165" value="biz_id" style="ellipse;whiteSpace=wrap;html=1;rounded=0;fontStyle=4" parent="1" vertex="1">
                    <mxGeometry x="333" y="885" width="69" height="44" as="geometry"/>
                </mxCell>
                <mxCell id="-fI06E_qC7kYEdV2wy-7-170" value="name" style="ellipse;whiteSpace=wrap;html=1;strokeWidth=1;rounded=0;" parent="1" vertex="1">
                    <mxGeometry x="480" y="891.25" width="76" height="41" as="geometry"/>
                </mxCell>
                <mxCell id="-fI06E_qC7kYEdV2wy-7-174" style="edgeStyle=none;html=1;endArrow=none;endFill=0;rounded=0;" parent="1" source="-fI06E_qC7kYEdV2wy-7-164" target="-fI06E_qC7kYEdV2wy-7-170" edge="1">
                    <mxGeometry relative="1" as="geometry">
                        <mxPoint x="520" y="964" as="sourcePoint"/>
                        <mxPoint x="547" y="949" as="targetPoint"/>
                    </mxGeometry>
                </mxCell>
                <mxCell id="-fI06E_qC7kYEdV2wy-7-175" style="edgeStyle=none;html=1;endArrow=none;endFill=0;rounded=0;" parent="1" source="-fI06E_qC7kYEdV2wy-7-164" target="-fI06E_qC7kYEdV2wy-7-165" edge="1">
                    <mxGeometry relative="1" as="geometry">
                        <mxPoint x="530" y="974" as="sourcePoint"/>
                        <mxPoint x="557" y="959" as="targetPoint"/>
                    </mxGeometry>
                </mxCell>
                <mxCell id="-fI06E_qC7kYEdV2wy-7-196" value="password" style="ellipse;whiteSpace=wrap;html=1;rounded=0;" parent="1" vertex="1">
                    <mxGeometry x="-388" y="416" width="75" height="37" as="geometry"/>
                </mxCell>
                <mxCell id="-fI06E_qC7kYEdV2wy-7-197" style="rounded=0;orthogonalLoop=1;jettySize=auto;html=1;endArrow=none;endFill=0;entryX=0.925;entryY=0;entryDx=0;entryDy=0;entryPerimeter=0;" parent="1" source="-fI06E_qC7kYEdV2wy-7-196" target="9" edge="1">
                    <mxGeometry relative="1" as="geometry">
                        <mxPoint x="-140" y="167" as="sourcePoint"/>
                        <mxPoint x="-163" y="169" as="targetPoint"/>
                    </mxGeometry>
                </mxCell>
                <mxCell id="-fI06E_qC7kYEdV2wy-7-204" value="" style="html=1;startArrow=none;startFill=0;endArrow=none;endFill=0;rounded=0;" parent="1" source="7" target="2" edge="1">
                    <mxGeometry relative="1" as="geometry">
                        <mxPoint x="-260" y="345" as="sourcePoint"/>
                        <mxPoint x="-237" y="244" as="targetPoint"/>
                    </mxGeometry>
                </mxCell>
                <mxCell id="TF3Yx5PsitKT7lrlH3tv-159" value="Min_Price" style="ellipse;whiteSpace=wrap;html=1;rounded=0;strokeWidth=1;dashed=1;dashPattern=12 12;" parent="1" vertex="1">
                    <mxGeometry x="-307" y="881.62" width="80" height="34.75" as="geometry"/>
                </mxCell>
                <mxCell id="0EuTNRP_Wa4SwzTkIQt1-171" style="rounded=0;orthogonalLoop=1;jettySize=auto;html=1;entryX=1;entryY=1;entryDx=0;entryDy=0;endArrow=none;endFill=0;" parent="1" edge="1">
                    <mxGeometry relative="1" as="geometry">
                        <mxPoint x="1146.1628930207912" y="87.83597131652868" as="targetPoint"/>
                    </mxGeometry>
                </mxCell>
                <mxCell id="0EuTNRP_Wa4SwzTkIQt1-170" style="rounded=0;orthogonalLoop=1;jettySize=auto;html=1;endArrow=none;endFill=0;" parent="1" edge="1">
                    <mxGeometry relative="1" as="geometry">
                        <mxPoint x="1121.6818208352174" y="93.94888386853268" as="targetPoint"/>
                    </mxGeometry>
                </mxCell>
                <mxCell id="222" style="edgeStyle=none;html=1;endArrow=none;endFill=0;" edge="1" parent="1" source="dYaynzTb6qn7LC-2oVFC-164" target="221">
                    <mxGeometry relative="1" as="geometry"/>
                </mxCell>
                <mxCell id="dYaynzTb6qn7LC-2oVFC-164" value="Business Photo" style="whiteSpace=wrap;html=1;strokeWidth=1;rounded=0;" parent="1" vertex="1">
                    <mxGeometry x="-576" y="864" width="102" height="50" as="geometry"/>
                </mxCell>
                <mxCell id="225" style="html=1;endArrow=block;endFill=1;rounded=0;" edge="1" parent="1" source="dYaynzTb6qn7LC-2oVFC-165" target="226">
                    <mxGeometry relative="1" as="geometry"/>
                </mxCell>
                <mxCell id="dYaynzTb6qn7LC-2oVFC-165" value="Store Photo" style="whiteSpace=wrap;html=1;strokeWidth=1;rounded=0;" parent="1" vertex="1">
                    <mxGeometry x="-677.0000000000001" y="774.38" width="105.4" height="53" as="geometry"/>
                </mxCell>
                <mxCell id="dYaynzTb6qn7LC-2oVFC-174" style="edgeStyle=orthogonalEdgeStyle;rounded=0;orthogonalLoop=1;jettySize=auto;html=1;strokeWidth=4;endArrow=block;endFill=1;" parent="1" source="dYaynzTb6qn7LC-2oVFC-166" target="dYaynzTb6qn7LC-2oVFC-172" edge="1">
                    <mxGeometry relative="1" as="geometry">
                        <mxPoint x="-1449.9977777777779" y="849.2222222222222" as="targetPoint"/>
                    </mxGeometry>
                </mxCell>
                <mxCell id="dYaynzTb6qn7LC-2oVFC-166" value="Account Photo" style="whiteSpace=wrap;html=1;strokeWidth=1;rounded=0;" parent="1" vertex="1">
                    <mxGeometry x="-501" y="706.5" width="110" height="53" as="geometry"/>
                </mxCell>
                <mxCell id="dYaynzTb6qn7LC-2oVFC-167" value="" style="edgeStyle=none;html=1;endArrow=none;endFill=0;rounded=0;" parent="1" source="dYaynzTb6qn7LC-2oVFC-164" target="iSEUA83aBgZTAnxHLK8J-171" edge="1">
                    <mxGeometry relative="1" as="geometry">
                        <mxPoint x="-345.97" y="759" as="sourcePoint"/>
                        <mxPoint x="-260.7809946241589" y="1003.7470144680257" as="targetPoint"/>
                    </mxGeometry>
                </mxCell>
                <mxCell id="dYaynzTb6qn7LC-2oVFC-169" value="" style="edgeStyle=none;html=1;endArrow=none;endFill=0;rounded=0;" parent="1" source="dYaynzTb6qn7LC-2oVFC-165" target="iSEUA83aBgZTAnxHLK8J-171" edge="1">
                    <mxGeometry relative="1" as="geometry">
                        <mxPoint x="-325.97" y="779" as="sourcePoint"/>
                        <mxPoint x="-262.7287217141659" y="1019.3245017235209" as="targetPoint"/>
                    </mxGeometry>
                </mxCell>
                <mxCell id="dYaynzTb6qn7LC-2oVFC-178" style="rounded=0;orthogonalLoop=1;jettySize=auto;html=1;endArrow=none;endFill=0;startArrow=none;startFill=0;edgeStyle=orthogonalEdgeStyle;" parent="1" source="dYaynzTb6qn7LC-2oVFC-171" target="-fI06E_qC7kYEdV2wy-7-164" edge="1">
                    <mxGeometry relative="1" as="geometry">
                        <Array as="points">
                            <mxPoint x="454" y="1113"/>
                        </Array>
                        <mxPoint x="1184" y="1525.5" as="sourcePoint"/>
                        <mxPoint x="1407" y="707" as="targetPoint"/>
                    </mxGeometry>
                </mxCell>
                <mxCell id="dYaynzTb6qn7LC-2oVFC-171" value="belongs" style="rhombus;whiteSpace=wrap;html=1;rounded=0;" parent="1" vertex="1">
                    <mxGeometry x="414" y="1256" width="80" height="80" as="geometry"/>
                </mxCell>
                <mxCell id="dYaynzTb6qn7LC-2oVFC-172" value="has" style="rhombus;whiteSpace=wrap;html=1;rounded=0;" parent="1" vertex="1">
                    <mxGeometry x="-477" y="595" width="60" height="50" as="geometry"/>
                </mxCell>
                <mxCell id="dYaynzTb6qn7LC-2oVFC-175" style="edgeStyle=orthogonalEdgeStyle;rounded=0;orthogonalLoop=1;jettySize=auto;html=1;endArrow=none;endFill=0;startArrow=none;startFill=0;" parent="1" source="dYaynzTb6qn7LC-2oVFC-172" target="9" edge="1">
                    <mxGeometry relative="1" as="geometry">
                        <mxPoint x="-537" y="665" as="sourcePoint"/>
                        <Array as="points">
                            <mxPoint x="-448" y="597"/>
                            <mxPoint x="-448" y="597"/>
                        </Array>
                    </mxGeometry>
                </mxCell>
                <mxCell id="dYaynzTb6qn7LC-2oVFC-192" style="edgeStyle=none;rounded=0;orthogonalLoop=1;jettySize=auto;html=1;endArrow=none;endFill=0;exitX=0.5;exitY=1;exitDx=0;exitDy=0;" parent="1" source="209" target="186" edge="1">
                    <mxGeometry relative="1" as="geometry">
                        <mxPoint x="1479.0000000000005" y="356.07491289198606" as="targetPoint"/>
                        <mxPoint x="310.6189065609151" y="348.5266361835911" as="sourcePoint"/>
                    </mxGeometry>
                </mxCell>
                <mxCell id="dYaynzTb6qn7LC-2oVFC-193" style="edgeStyle=none;rounded=0;orthogonalLoop=1;jettySize=auto;html=1;endArrow=none;endFill=0;" parent="1" source="dYaynzTb6qn7LC-2oVFC-184" target="186" edge="1">
                    <mxGeometry relative="1" as="geometry">
                        <mxPoint x="1513.5000000000005" y="360.80938416422293" as="targetPoint"/>
                    </mxGeometry>
                </mxCell>
                <mxCell id="dYaynzTb6qn7LC-2oVFC-184" value="city" style="ellipse;whiteSpace=wrap;html=1;strokeWidth=1;rounded=0;" parent="1" vertex="1">
                    <mxGeometry x="358.0000000000001" y="311.5" width="76" height="41" as="geometry"/>
                </mxCell>
                <mxCell id="dYaynzTb6qn7LC-2oVFC-194" style="edgeStyle=none;rounded=0;orthogonalLoop=1;jettySize=auto;html=1;endArrow=none;endFill=0;startArrow=none;" parent="1" source="dYaynzTb6qn7LC-2oVFC-186" target="186" edge="1">
                    <mxGeometry relative="1" as="geometry">
                        <mxPoint x="1513.5000000000005" y="367.376811594203" as="targetPoint"/>
                    </mxGeometry>
                </mxCell>
                <mxCell id="dYaynzTb6qn7LC-2oVFC-185" value="state" style="ellipse;whiteSpace=wrap;html=1;strokeWidth=1;rounded=0;" parent="1" vertex="1">
                    <mxGeometry x="450.0000000000001" y="311.5" width="76" height="41" as="geometry"/>
                </mxCell>
                <mxCell id="dYaynzTb6qn7LC-2oVFC-190" style="edgeStyle=none;rounded=0;orthogonalLoop=1;jettySize=auto;html=1;endArrow=none;endFill=0;" parent="1" source="dYaynzTb6qn7LC-2oVFC-186" target="186" edge="1">
                    <mxGeometry relative="1" as="geometry">
                        <mxPoint x="1513.5000000000005" y="374.9403973509934" as="targetPoint"/>
                    </mxGeometry>
                </mxCell>
                <mxCell id="dYaynzTb6qn7LC-2oVFC-191" style="edgeStyle=none;rounded=0;orthogonalLoop=1;jettySize=auto;html=1;endArrow=none;endFill=0;" parent="1" source="dYaynzTb6qn7LC-2oVFC-187" target="186" edge="1">
                    <mxGeometry relative="1" as="geometry">
                        <mxPoint x="1499.245856353591" y="396" as="targetPoint"/>
                    </mxGeometry>
                </mxCell>
                <mxCell id="dYaynzTb6qn7LC-2oVFC-187" value="country" style="ellipse;whiteSpace=wrap;html=1;strokeWidth=1;rounded=0;" parent="1" vertex="1">
                    <mxGeometry x="387.0000000000001" y="432.5" width="76" height="41" as="geometry"/>
                </mxCell>
                <mxCell id="dYaynzTb6qn7LC-2oVFC-216" value="" style="edgeStyle=none;rounded=1;orthogonalLoop=1;jettySize=auto;html=1;endArrow=none;endFill=0;" parent="1" source="81" target="5" edge="1">
                    <mxGeometry relative="1" as="geometry">
                        <mxPoint x="100.2586576137823" y="1251.6207053675669" as="sourcePoint"/>
                    </mxGeometry>
                </mxCell>
                <mxCell id="dYaynzTb6qn7LC-2oVFC-215" value="totalRating" style="ellipse;whiteSpace=wrap;html=1;rounded=0;dashed=1;" parent="1" vertex="1">
                    <mxGeometry x="-77" y="1228" width="84.6" height="40" as="geometry"/>
                </mxCell>
                <mxCell id="dYaynzTb6qn7LC-2oVFC-224" value="username" style="ellipse;whiteSpace=wrap;html=1;rounded=0;" parent="1" vertex="1">
                    <mxGeometry x="-586" y="420" width="75" height="37" as="geometry"/>
                </mxCell>
                <mxCell id="dYaynzTb6qn7LC-2oVFC-233" value="owns" style="rhombus;whiteSpace=wrap;html=1;rounded=0;" parent="1" vertex="1">
                    <mxGeometry x="-447.01" y="1076.5" width="68" height="69" as="geometry"/>
                </mxCell>
                <mxCell id="dYaynzTb6qn7LC-2oVFC-238" style="edgeStyle=none;rounded=1;orthogonalLoop=1;jettySize=auto;html=1;endArrow=none;endFill=0;" parent="1" source="dYaynzTb6qn7LC-2oVFC-237" target="139" edge="1">
                    <mxGeometry relative="1" as="geometry"/>
                </mxCell>
                <mxCell id="dYaynzTb6qn7LC-2oVFC-237" value="add_date" style="ellipse;whiteSpace=wrap;html=1;strokeWidth=1;rounded=0;" parent="1" vertex="1">
                    <mxGeometry x="-262" y="698.75" width="87" height="38" as="geometry"/>
                </mxCell>
                <mxCell id="-Xfdy7UChU0Q8BkvYpxF-159" value="List_of_Stores" style="ellipse;whiteSpace=wrap;html=1;rounded=0;strokeWidth=1;dashed=1;dashPattern=12 12;" parent="1" vertex="1">
                    <mxGeometry x="-299.9" y="948" width="104" height="34.75" as="geometry"/>
                </mxCell>
                <mxCell id="-Xfdy7UChU0Q8BkvYpxF-163" value="" style="shape=requiredInterface;html=1;verticalLabelPosition=bottom;sketch=0;rotation=-140;" parent="1" vertex="1">
                    <mxGeometry x="268" y="781" width="23" height="20" as="geometry"/>
                </mxCell>
                <mxCell id="-Xfdy7UChU0Q8BkvYpxF-164" value="" style="shape=requiredInterface;html=1;verticalLabelPosition=bottom;sketch=0;rotation=-180;" parent="1" vertex="1">
                    <mxGeometry x="276.6" y="822.25" width="23" height="20" as="geometry"/>
                </mxCell>
                <mxCell id="-Xfdy7UChU0Q8BkvYpxF-165" value="" style="shape=requiredInterface;html=1;verticalLabelPosition=bottom;sketch=0;rotation=-225;" parent="1" vertex="1">
                    <mxGeometry x="259" y="894" width="23" height="20" as="geometry"/>
                </mxCell>
                <mxCell id="-Xfdy7UChU0Q8BkvYpxF-171" value="" style="shape=requiredInterface;html=1;verticalLabelPosition=bottom;sketch=0;rotation=135;direction=south;" parent="1" vertex="1">
                    <mxGeometry x="-396" y="768.25" width="20" height="23" as="geometry"/>
                </mxCell>
                <mxCell id="-Xfdy7UChU0Q8BkvYpxF-173" value="" style="shape=requiredInterface;html=1;verticalLabelPosition=bottom;sketch=0;rotation=-210;" parent="1" vertex="1">
                    <mxGeometry x="-439" y="831.25" width="23" height="20" as="geometry"/>
                </mxCell>
                <mxCell id="-Xfdy7UChU0Q8BkvYpxF-176" value="title" style="ellipse;whiteSpace=wrap;html=1;rounded=0;" parent="1" vertex="1">
                    <mxGeometry x="-296.8" y="1135" width="71.6" height="39" as="geometry"/>
                </mxCell>
                <mxCell id="-Xfdy7UChU0Q8BkvYpxF-180" value="" style="shape=requiredInterface;html=1;verticalLabelPosition=bottom;sketch=0;rotation=0;" parent="1" vertex="1">
                    <mxGeometry x="-247.20000000000005" y="504" width="23" height="20" as="geometry"/>
                </mxCell>
                <mxCell id="-Xfdy7UChU0Q8BkvYpxF-182" value="" style="shape=requiredInterface;html=1;verticalLabelPosition=bottom;sketch=0;rotation=45;" parent="1" vertex="1">
                    <mxGeometry x="-236.4" y="556" width="23" height="20" as="geometry"/>
                </mxCell>
                <mxCell id="-Xfdy7UChU0Q8BkvYpxF-183" value="" style="shape=requiredInterface;html=1;verticalLabelPosition=bottom;sketch=0;rotation=-30;" parent="1" vertex="1">
                    <mxGeometry x="-241.5" y="451" width="23" height="20" as="geometry"/>
                </mxCell>
                <mxCell id="iSEUA83aBgZTAnxHLK8J-162" value="pid" style="ellipse;whiteSpace=wrap;html=1;rounded=0;fontStyle=4" parent="1" vertex="1">
                    <mxGeometry x="-328" y="716" width="63.6" height="38" as="geometry"/>
                </mxCell>
                <mxCell id="iSEUA83aBgZTAnxHLK8J-167" style="rounded=0;orthogonalLoop=1;jettySize=auto;html=1;endArrow=none;endFill=0;" parent="1" source="iSEUA83aBgZTAnxHLK8J-165" target="dYaynzTb6qn7LC-2oVFC-166" edge="1">
                    <mxGeometry relative="1" as="geometry">
                        <mxPoint x="-1327.97" y="811.5091463414633" as="targetPoint"/>
                    </mxGeometry>
                </mxCell>
                <mxCell id="iSEUA83aBgZTAnxHLK8J-165" value="small_image" style="ellipse;whiteSpace=wrap;html=1;strokeWidth=1;rounded=0;" parent="1" vertex="1">
                    <mxGeometry x="-559.0099999999999" y="658.75" width="87" height="38" as="geometry"/>
                </mxCell>
                <mxCell id="iSEUA83aBgZTAnxHLK8J-166" value="image" style="ellipse;whiteSpace=wrap;html=1;strokeWidth=1;rounded=0;" parent="1" vertex="1">
                    <mxGeometry x="-686.5000000000001" y="851.2500000000001" width="87" height="38" as="geometry"/>
                </mxCell>
                <mxCell id="iSEUA83aBgZTAnxHLK8J-168" style="rounded=0;orthogonalLoop=1;jettySize=auto;html=1;endArrow=none;endFill=0;" parent="1" source="iSEUA83aBgZTAnxHLK8J-166" edge="1" target="dYaynzTb6qn7LC-2oVFC-165">
                    <mxGeometry relative="1" as="geometry">
                        <mxPoint x="-1265.37" y="1018.0000000000001" as="sourcePoint"/>
                        <mxPoint x="-983.5339376218323" y="885.25" as="targetPoint"/>
                    </mxGeometry>
                </mxCell>
                <mxCell id="217" value="" style="edgeStyle=none;html=1;endArrow=none;endFill=0;" edge="1" parent="1" source="iSEUA83aBgZTAnxHLK8J-171" target="216">
                    <mxGeometry relative="1" as="geometry"/>
                </mxCell>
                <mxCell id="iSEUA83aBgZTAnxHLK8J-171" value="d" style="ellipse;whiteSpace=wrap;html=1;strokeWidth=1;rounded=0;" parent="1" vertex="1">
                    <mxGeometry x="-366" y="788.87" width="31" height="30" as="geometry"/>
                </mxCell>
                <mxCell id="iSEUA83aBgZTAnxHLK8J-182" value="" style="edgeStyle=none;html=1;endArrow=none;endFill=0;rounded=0;" parent="1" source="dYaynzTb6qn7LC-2oVFC-166" target="iSEUA83aBgZTAnxHLK8J-171" edge="1">
                    <mxGeometry relative="1" as="geometry">
                        <mxPoint x="-1265.7152145891853" y="788.8800000000001" as="sourcePoint"/>
                        <mxPoint x="-1186.97" y="739" as="targetPoint"/>
                    </mxGeometry>
                </mxCell>
                <mxCell id="iSEUA83aBgZTAnxHLK8J-184" value="" style="shape=requiredInterface;html=1;verticalLabelPosition=bottom;sketch=0;rotation=120;" parent="1" vertex="1">
                    <mxGeometry x="-391.02" y="884" width="23" height="20" as="geometry"/>
                </mxCell>
                <mxCell id="160" value="&lt;u&gt;game_id&lt;/u&gt;" style="ellipse;whiteSpace=wrap;html=1;rounded=0;" parent="1" vertex="1">
                    <mxGeometry x="-291" y="1034" width="84.6" height="40" as="geometry"/>
                </mxCell>
                <mxCell id="163" value="day" style="ellipse;whiteSpace=wrap;html=1;rounded=0;" parent="1" vertex="1">
                    <mxGeometry x="261" y="597" width="68.6" height="34" as="geometry"/>
                </mxCell>
                <mxCell id="165" value="start_time" style="ellipse;whiteSpace=wrap;html=1;rounded=0;" parent="1" vertex="1">
                    <mxGeometry x="342" y="573" width="84.6" height="40" as="geometry"/>
                </mxCell>
                <mxCell id="166" value="end_time" style="ellipse;whiteSpace=wrap;html=1;rounded=0;" parent="1" vertex="1">
                    <mxGeometry x="360" y="497" width="84.6" height="40" as="geometry"/>
                </mxCell>
                <mxCell id="171" value="firstname" style="ellipse;whiteSpace=wrap;html=1;rounded=0;" parent="1" vertex="1">
                    <mxGeometry x="-375" y="610.25" width="75" height="37" as="geometry"/>
                </mxCell>
                <mxCell id="172" value="lastname" style="ellipse;whiteSpace=wrap;html=1;rounded=0;" parent="1" vertex="1">
                    <mxGeometry x="-326.2" y="551" width="75" height="37" as="geometry"/>
                </mxCell>
                <mxCell id="175" value="salary" style="ellipse;whiteSpace=wrap;html=1;strokeWidth=1;rounded=0;" parent="1" vertex="1">
                    <mxGeometry x="-128.6" y="429" width="73.6" height="40" as="geometry"/>
                </mxCell>
                <mxCell id="176" value="can_ban_admin" style="ellipse;whiteSpace=wrap;html=1;strokeWidth=1;rounded=0;" parent="1" vertex="1">
                    <mxGeometry x="-203.00000000000006" y="279" width="113" height="45" as="geometry"/>
                </mxCell>
                <mxCell id="182" value="description" style="ellipse;whiteSpace=wrap;html=1;rounded=0;" parent="1" vertex="1">
                    <mxGeometry x="-269" y="1201" width="78" height="39" as="geometry"/>
                </mxCell>
                <mxCell id="184" value="publish_date" style="ellipse;whiteSpace=wrap;html=1;rounded=0;" parent="1" vertex="1">
                    <mxGeometry x="-5.999999999999986" y="1187" width="87" height="41" as="geometry"/>
                </mxCell>
                <mxCell id="188" style="edgeStyle=none;html=1;strokeWidth=1;endArrow=none;endFill=0;startSize=1;endSize=1;" parent="1" source="186" target="dYaynzTb6qn7LC-2oVFC-185" edge="1">
                    <mxGeometry relative="1" as="geometry"/>
                </mxCell>
                <mxCell id="186" value="address" style="ellipse;whiteSpace=wrap;html=1;strokeWidth=1;rounded=0;" parent="1" vertex="1">
                    <mxGeometry x="276.60000000000014" y="416" width="76" height="41" as="geometry"/>
                </mxCell>
                <mxCell id="dYaynzTb6qn7LC-2oVFC-186" value="zip_code" style="ellipse;whiteSpace=wrap;html=1;strokeWidth=1;rounded=0;" parent="1" vertex="1">
                    <mxGeometry x="426.6000000000001" y="372" width="76" height="41" as="geometry"/>
                </mxCell>
                <mxCell id="193" value="store_name" style="ellipse;whiteSpace=wrap;html=1;rounded=0;strokeWidth=1;" parent="1" vertex="1">
                    <mxGeometry x="90" y="373" width="84" height="39" as="geometry"/>
                </mxCell>
                <mxCell id="197" style="edgeStyle=none;rounded=0;orthogonalLoop=1;jettySize=auto;html=1;endArrow=none;endFill=0;" edge="1" parent="1" source="198" target="205">
                    <mxGeometry relative="1" as="geometry">
                        <mxPoint x="1862.0000000000005" y="386.80938416422293" as="targetPoint"/>
                    </mxGeometry>
                </mxCell>
                <mxCell id="198" value="City" style="ellipse;whiteSpace=wrap;html=1;strokeWidth=1;rounded=0;" vertex="1" parent="1">
                    <mxGeometry x="333" y="666" width="76" height="41" as="geometry"/>
                </mxCell>
                <mxCell id="199" style="edgeStyle=none;rounded=0;orthogonalLoop=1;jettySize=auto;html=1;endArrow=none;endFill=0;startArrow=none;" edge="1" parent="1" source="206" target="205">
                    <mxGeometry relative="1" as="geometry">
                        <mxPoint x="1862.0000000000005" y="393.376811594203" as="targetPoint"/>
                    </mxGeometry>
                </mxCell>
                <mxCell id="200" value="State" style="ellipse;whiteSpace=wrap;html=1;strokeWidth=1;rounded=0;" vertex="1" parent="1">
                    <mxGeometry x="424" y="668" width="76" height="41" as="geometry"/>
                </mxCell>
                <mxCell id="201" style="edgeStyle=none;rounded=0;orthogonalLoop=1;jettySize=auto;html=1;endArrow=none;endFill=0;" edge="1" parent="1" source="206" target="205">
                    <mxGeometry relative="1" as="geometry">
                        <mxPoint x="1862.0000000000005" y="400.9403973509934" as="targetPoint"/>
                    </mxGeometry>
                </mxCell>
                <mxCell id="202" style="edgeStyle=none;rounded=0;orthogonalLoop=1;jettySize=auto;html=1;endArrow=none;endFill=0;" edge="1" parent="1" source="203" target="205">
                    <mxGeometry relative="1" as="geometry">
                        <mxPoint x="1847.745856353591" y="422" as="targetPoint"/>
                    </mxGeometry>
                </mxCell>
                <mxCell id="203" value="Country" style="ellipse;whiteSpace=wrap;html=1;strokeWidth=1;rounded=0;" vertex="1" parent="1">
                    <mxGeometry x="494" y="755.5" width="76" height="41" as="geometry"/>
                </mxCell>
                <mxCell id="204" style="edgeStyle=none;html=1;strokeWidth=1;endArrow=none;endFill=0;startSize=1;endSize=1;" edge="1" parent="1" source="205" target="200">
                    <mxGeometry relative="1" as="geometry"/>
                </mxCell>
                <mxCell id="211" style="edgeStyle=none;html=1;endArrow=none;endFill=0;" edge="1" parent="1" source="205" target="210">
                    <mxGeometry relative="1" as="geometry"/>
                </mxCell>
                <mxCell id="205" value="address" style="ellipse;whiteSpace=wrap;html=1;strokeWidth=1;rounded=0;" vertex="1" parent="1">
                    <mxGeometry x="374" y="728.5" width="76" height="41" as="geometry"/>
                </mxCell>
                <mxCell id="206" value="Zip_Code" style="ellipse;whiteSpace=wrap;html=1;strokeWidth=1;rounded=0;" vertex="1" parent="1">
                    <mxGeometry x="490.0000000000002" y="698.75" width="76" height="41" as="geometry"/>
                </mxCell>
                <mxCell id="209" value="street" style="ellipse;whiteSpace=wrap;html=1;strokeWidth=1;rounded=0;" vertex="1" parent="1">
                    <mxGeometry x="266.0000000000001" y="316" width="76" height="41" as="geometry"/>
                </mxCell>
                <mxCell id="210" value="street" style="ellipse;whiteSpace=wrap;html=1;strokeWidth=1;rounded=0;" vertex="1" parent="1">
                    <mxGeometry x="282.0000000000001" y="728.5" width="76" height="41" as="geometry"/>
                </mxCell>
                <mxCell id="220" value="" style="edgeStyle=none;html=1;endArrow=none;endFill=0;" edge="1" parent="1" source="216" target="219">
                    <mxGeometry relative="1" as="geometry"/>
                </mxCell>
                <mxCell id="223" value="" style="edgeStyle=none;html=1;endArrow=block;endFill=1;strokeWidth=4;" edge="1" parent="1" source="216" target="dYaynzTb6qn7LC-2oVFC-233">
                    <mxGeometry relative="1" as="geometry">
                        <mxPoint x="-841" y="1099" as="targetPoint"/>
                    </mxGeometry>
                </mxCell>
                <mxCell id="216" value="Game Photo" style="whiteSpace=wrap;html=1;strokeWidth=1;rounded=0;" vertex="1" parent="1">
                    <mxGeometry x="-462" y="973" width="97.98" height="52" as="geometry"/>
                </mxCell>
                <mxCell id="219" value="med_image" style="ellipse;whiteSpace=wrap;html=1;strokeWidth=1;rounded=0;" vertex="1" parent="1">
                    <mxGeometry x="-508" y="1047" width="81.01" height="46" as="geometry"/>
                </mxCell>
                <mxCell id="221" value="image" style="ellipse;whiteSpace=wrap;html=1;strokeWidth=1;rounded=0;" vertex="1" parent="1">
                    <mxGeometry x="-640.02" y="929.0000000000001" width="81.01" height="46" as="geometry"/>
                </mxCell>
                <mxCell id="224" value="" style="shape=requiredInterface;html=1;verticalLabelPosition=bottom;sketch=0;rotation=-180;" vertex="1" parent="1">
                    <mxGeometry x="-492" y="792.25" width="23" height="20" as="geometry"/>
                </mxCell>
                <mxCell id="227" style="edgeStyle=orthogonalEdgeStyle;rounded=0;html=1;strokeWidth=1;endArrow=none;endFill=0;" edge="1" parent="1" source="226" target="19">
                    <mxGeometry relative="1" as="geometry">
                        <Array as="points">
                            <mxPoint x="-624" y="257"/>
                            <mxPoint x="189" y="257"/>
                        </Array>
                    </mxGeometry>
                </mxCell>
                <mxCell id="226" value="belongs" style="rhombus;whiteSpace=wrap;html=1;rounded=0;" vertex="1" parent="1">
                    <mxGeometry x="-664.3" y="305" width="80" height="80" as="geometry"/>
                </mxCell>
            </root>
        </mxGraphModel>
    </diagram>
</mxfile>